<svg width="38" height="45" viewBox="0 0 38 45" fill="none" xmlns="http://www.w3.org/2000/svg">
<path fill-rule="evenodd" clip-rule="evenodd" d="M25.1492 11.5486H12.5644L6.29224 22.4284H18.8568L25.1492 11.5486Z" fill="#F97A24"/>
<path fill-rule="evenodd" clip-rule="evenodd" d="M12.5642 11.5495H18.6942H25.149C25.149 6.90124 22.6118 2.82131 18.8566 0.649414L12.5642 11.5495Z" fill="#FF612A"/>
<path fill-rule="evenodd" clip-rule="evenodd" d="M18.857 22.429H6.29242C6.27212 22.429 6.27212 22.429 6.27212 22.429L0 33.329H12.5645L18.857 22.429ZM25.1494 33.329H37.7139C37.7139 28.6808 35.1969 24.6009 31.4418 22.429H31.4215L25.1494 33.329Z" fill="#FF8F0F"/>
<path fill-rule="evenodd" clip-rule="evenodd" d="M12.5645 33.3289H0L6.29242 44.2087H18.857C15.1018 42.0368 12.5645 37.9771 12.5645 33.3289ZM37.7139 33.3289H25.1494L18.857 44.2087H31.4215L37.7139 33.3289Z" fill="#FFAA0F"/>
</svg>
