<svg id="svg" version="1.1" xmlns="http://www.w3.org/2000/svg" xmlns:xlink="http://www.w3.org/1999/xlink" width="400" height="400" viewBox="0, 0, 400,400"><g id="svgg"><path id="path0" d="M72.267 273.467 C 71.445 274.289,72.594 276.445,87.803 302.600 C 94.140 313.498,98.887 321.737,101.506 326.380 C 102.926 328.899,104.852 332.229,105.785 333.780 C 106.719 335.331,108.328 338.130,109.362 340.000 C 110.396 341.870,111.549 343.806,111.924 344.302 L 112.606 345.204 150.003 345.206 C 170.571 345.207,187.805 345.207,188.300 345.204 C 189.818 345.197,189.342 344.561,185.500 341.459 C 166.261 325.927,155.031 304.631,152.811 279.468 C 152.582 276.865,152.209 274.390,151.983 273.968 C 151.566 273.188,73.039 272.694,72.267 273.467 M242.674 273.947 C 241.135 274.962,239.616 277.385,231.479 291.800 C 230.610 293.340,228.632 296.760,227.085 299.400 C 223.791 305.018,221.356 309.226,216.784 317.200 C 214.954 320.390,211.210 326.870,208.462 331.600 C 201.843 342.995,200.950 344.683,201.338 345.072 C 201.820 345.554,279.998 345.733,281.255 345.255 C 281.995 344.974,283.203 343.275,285.609 339.133 C 293.453 325.628,299.064 315.934,301.197 312.200 C 302.454 310.000,304.138 307.075,304.941 305.700 C 310.554 296.083,311.077 295.181,316.513 285.728 C 322.643 275.069,322.813 274.724,322.344 273.886 C 321.724 272.778,244.358 272.837,242.674 273.947 " stroke="none" fill="#f9a101" fill-rule="evenodd"></path><path id="path1" d="M113.212 199.200 C 112.098 200.370,107.059 208.701,98.819 223.000 C 91.845 235.100,83.012 250.400,79.188 257.000 C 69.554 273.631,69.884 272.949,70.614 274.696 C 70.942 275.479,73.619 280.278,76.565 285.360 C 81.662 294.154,91.632 311.426,101.410 328.400 C 110.295 343.824,111.243 345.407,111.893 345.900 C 112.671 346.490,191.801 346.646,192.164 346.059 C 192.493 345.526,191.663 344.712,188.000 341.977 C 167.518 326.680,153.600 299.467,153.600 274.715 C 153.600 271.828,151.200 276.243,177.801 230.200 C 185.682 216.560,192.820 204.191,193.665 202.712 C 194.539 201.181,195.200 199.490,195.200 198.781 L 195.200 197.538 193.100 199.269 L 191.000 201.000 153.078 200.898 C 132.220 200.842,115.241 200.657,115.346 200.488 C 115.450 200.319,115.399 199.555,115.231 198.790 L 114.927 197.400 113.212 199.200 M283.280 201.150 C 283.034 201.302,278.897 208.261,274.087 216.613 C 269.276 224.966,263.665 234.680,261.618 238.200 C 258.171 244.128,253.050 253.001,245.690 265.800 C 244.045 268.660,241.841 272.260,240.791 273.800 C 239.741 275.340,234.065 284.970,228.176 295.200 C 222.288 305.430,216.481 315.510,215.271 317.600 C 214.062 319.690,211.514 324.100,209.608 327.400 C 207.703 330.700,204.659 335.970,202.845 339.112 C 201.030 342.254,199.606 345.134,199.678 345.512 C 199.803 346.157,202.421 346.206,241.084 346.302 L 282.356 346.404 283.330 345.102 C 283.866 344.386,287.149 338.850,290.625 332.800 C 296.683 322.258,299.907 316.668,312.196 295.400 C 326.378 270.855,325.119 273.885,324.412 266.000 C 322.613 245.935,314.559 228.289,300.704 214.057 C 294.010 207.181,284.692 200.278,283.280 201.150 M296.200 218.200 C 296.200 219.265,296.066 219.400,295.005 219.400 C 293.770 219.400,293.285 218.599,293.764 217.350 C 294.226 216.147,296.200 216.836,296.200 218.200 M174.111 218.805 C 174.490 219.247,174.800 219.843,174.800 220.128 C 174.800 220.414,175.048 220.986,175.351 221.401 C 176.322 222.728,175.004 224.685,173.000 224.892 C 171.387 225.060,170.508 224.532,171.217 223.823 C 171.788 223.252,171.680 222.023,171.000 221.343 C 170.223 220.566,170.235 219.422,171.029 218.629 C 171.895 217.762,173.287 217.842,174.111 218.805 M276.566 223.637 C 276.187 224.057,275.409 224.375,274.838 224.346 L 273.800 224.291 274.800 224.117 C 276.076 223.895,276.783 222.973,276.864 221.424 L 276.928 220.200 277.092 221.537 C 277.201 222.427,277.025 223.130,276.566 223.637 M275.568 223.038 C 275.169 223.519,275.005 223.535,274.741 223.119 C 274.251 222.345,274.330 222.000,275.000 222.000 C 275.330 222.000,275.621 221.775,275.646 221.500 C 275.672 221.225,275.777 221.324,275.879 221.719 C 275.982 222.115,275.842 222.708,275.568 223.038 M307.242 226.869 C 307.817 227.421,307.839 227.576,307.369 227.757 C 307.056 227.877,306.800 228.231,306.800 228.545 C 306.800 229.776,304.479 229.952,303.489 228.795 C 302.670 227.839,302.627 227.336,303.300 226.585 C 303.575 226.279,304.043 225.740,304.340 225.388 C 304.915 224.706,305.075 224.788,307.242 226.869 M175.600 228.199 C 175.600 229.115,172.665 231.522,172.162 231.019 C 171.424 230.281,171.453 229.781,172.289 228.805 C 172.896 228.095,175.600 227.601,175.600 228.199 M99.937 233.539 C 101.300 234.587,100.999 236.155,99.400 236.335 C 98.740 236.409,98.056 236.724,97.880 237.035 C 97.704 237.346,96.960 237.600,96.227 237.600 C 94.364 237.600,94.128 236.449,95.644 234.751 C 96.280 234.039,96.800 233.308,96.800 233.128 C 96.800 232.523,98.990 232.810,99.937 233.539 M312.786 235.900 C 312.805 236.563,312.678 236.535,311.661 235.653 C 311.188 235.242,310.801 234.477,310.802 233.953 C 310.804 232.885,312.754 234.799,312.786 235.900 M162.967 243.843 C 164.018 244.246,163.757 245.945,162.601 246.236 C 161.186 246.591,160.400 246.178,160.400 245.079 C 160.400 243.638,161.302 243.204,162.967 243.843 M90.800 247.013 C 90.800 248.493,90.645 248.883,89.954 249.139 C 89.017 249.486,89.833 250.800,90.986 250.800 C 92.043 250.800,92.404 253.470,91.400 253.855 C 90.767 254.098,90.548 256.000,91.153 256.000 C 91.584 256.000,91.933 257.212,91.701 257.902 C 91.608 258.179,91.367 258.303,91.166 258.179 C 90.965 258.055,90.800 258.323,90.800 258.776 C 90.800 259.333,90.541 259.600,90.000 259.600 C 89.459 259.600,89.200 259.333,89.200 258.776 C 89.200 258.323,89.035 258.055,88.834 258.179 C 88.633 258.303,88.392 258.179,88.299 257.902 C 88.067 257.212,88.416 256.000,88.847 256.000 C 89.430 256.000,89.245 254.322,88.609 253.844 C 87.604 253.088,87.354 249.060,88.251 248.078 C 89.606 246.594,90.000 246.039,90.000 245.617 C 90.000 245.388,90.180 245.200,90.400 245.200 C 90.620 245.200,90.800 246.016,90.800 247.013 M315.999 247.700 C 316.000 249.354,314.594 249.851,313.371 248.629 C 312.223 247.480,313.116 246.021,314.899 246.132 C 315.890 246.193,315.998 246.347,315.999 247.700 M259.921 253.521 C 261.313 254.426,260.993 256.156,259.400 256.335 C 258.740 256.409,258.056 256.724,257.880 257.035 C 257.402 257.880,254.894 257.773,254.718 256.900 C 254.536 256.001,255.445 254.145,256.210 253.852 C 256.534 253.727,256.800 253.374,256.800 253.068 C 256.800 252.383,258.562 252.639,259.921 253.521 M83.377 258.837 C 83.254 259.037,82.983 259.200,82.776 259.200 C 82.339 259.200,82.265 257.469,82.685 257.049 C 83.042 256.691,83.682 258.344,83.377 258.837 M155.789 258.400 C 156.395 258.400,156.907 260.057,156.571 260.932 C 155.981 262.470,152.800 261.702,152.800 260.021 C 152.800 259.285,154.174 257.981,154.727 258.193 C 155.023 258.307,155.501 258.400,155.789 258.400 M81.921 264.102 C 81.814 265.962,81.693 266.215,80.854 266.334 C 79.464 266.531,79.078 265.909,79.401 263.996 C 80.068 260.046,82.149 260.133,81.921 264.102 M152.800 266.797 C 152.800 267.607,151.326 269.600,150.728 269.600 C 150.346 269.600,150.288 267.558,150.643 266.633 C 151.011 265.673,152.800 265.809,152.800 266.797 M250.400 267.000 C 250.400 267.330,250.220 267.600,250.000 267.600 C 249.780 267.600,249.600 267.330,249.600 267.000 C 249.600 266.670,249.780 266.400,250.000 266.400 C 250.220 266.400,250.400 266.670,250.400 267.000 M151.983 273.968 C 152.209 274.390,152.582 276.865,152.811 279.468 C 155.031 304.631,166.261 325.927,185.500 341.459 C 189.342 344.561,189.818 345.197,188.300 345.204 C 187.805 345.207,170.571 345.207,150.003 345.206 L 112.606 345.204 111.924 344.302 C 111.549 343.806,110.396 341.870,109.362 340.000 C 108.328 338.130,106.719 335.331,105.785 333.780 C 104.852 332.229,102.926 328.899,101.506 326.380 C 98.887 321.737,94.140 313.498,87.803 302.600 C 72.594 276.445,71.445 274.289,72.267 273.467 C 73.039 272.694,151.566 273.188,151.983 273.968 M322.344 273.886 C 322.813 274.724,322.643 275.069,316.513 285.728 C 311.077 295.181,310.554 296.083,304.941 305.700 C 304.138 307.075,302.454 310.000,301.197 312.200 C 299.064 315.934,293.453 325.628,285.609 339.133 C 283.203 343.275,281.995 344.974,281.255 345.255 C 279.998 345.733,201.820 345.554,201.338 345.072 C 200.950 344.683,201.843 342.995,208.462 331.600 C 211.210 326.870,214.954 320.390,216.784 317.200 C 221.356 309.226,223.791 305.018,227.085 299.400 C 228.632 296.760,230.610 293.340,231.479 291.800 C 239.616 277.385,241.135 274.962,242.674 273.947 C 244.358 272.837,321.724 272.778,322.344 273.886 " stroke="none" fill="#f58809" fill-rule="evenodd"></path><path id="path2" d="M116.090 197.213 C 115.324 197.523,115.197 197.837,115.290 199.186 L 115.400 200.791 153.289 200.895 L 191.178 201.000 193.089 199.338 C 194.140 198.424,194.850 197.524,194.667 197.338 C 194.205 196.869,117.241 196.747,116.090 197.213 M293.764 217.350 C 293.285 218.599,293.770 219.400,295.005 219.400 C 296.066 219.400,296.200 219.265,296.200 218.200 C 296.200 216.836,294.226 216.147,293.764 217.350 M171.029 218.629 C 170.235 219.422,170.223 220.566,171.000 221.343 C 171.680 222.023,171.788 223.252,171.217 223.823 C 170.508 224.532,171.387 225.060,173.000 224.892 C 175.004 224.685,176.322 222.728,175.351 221.401 C 175.048 220.986,174.800 220.414,174.800 220.128 C 174.800 218.425,172.247 217.410,171.029 218.629 M276.864 221.424 C 276.783 222.973,276.076 223.895,274.800 224.117 L 273.800 224.291 274.838 224.346 C 276.304 224.422,277.295 223.188,277.092 221.537 L 276.928 220.200 276.864 221.424 M275.646 221.500 C 275.621 221.775,275.330 222.000,275.000 222.000 C 274.330 222.000,274.251 222.345,274.741 223.119 C 275.202 223.844,276.133 222.698,275.879 221.719 C 275.777 221.324,275.672 221.225,275.646 221.500 M304.340 225.388 C 304.043 225.740,303.575 226.279,303.300 226.585 C 302.627 227.336,302.670 227.839,303.489 228.795 C 304.479 229.952,306.800 229.776,306.800 228.545 C 306.800 228.231,307.056 227.877,307.369 227.757 C 307.968 227.527,307.799 227.293,305.712 225.474 C 304.953 224.812,304.833 224.804,304.340 225.388 M172.289 228.805 C 171.453 229.781,171.424 230.281,172.162 231.019 C 172.665 231.522,175.600 229.115,175.600 228.199 C 175.600 227.601,172.896 228.095,172.289 228.805 M96.800 233.128 C 96.800 233.308,96.280 234.039,95.644 234.751 C 94.128 236.449,94.364 237.600,96.227 237.600 C 96.960 237.600,97.704 237.346,97.880 237.035 C 98.056 236.724,98.740 236.409,99.400 236.335 C 101.986 236.044,100.618 232.831,97.900 232.809 C 97.295 232.804,96.800 232.948,96.800 233.128 M310.802 233.953 C 310.800 234.722,312.075 236.400,312.661 236.400 C 313.099 236.400,312.637 235.236,311.788 234.200 C 310.820 233.020,310.804 233.016,310.802 233.953 M160.667 243.867 C 160.166 244.367,160.398 246.024,161.001 246.256 C 162.182 246.709,163.600 246.043,163.600 245.035 C 163.600 243.842,161.520 243.014,160.667 243.867 M90.000 245.617 C 90.000 246.039,89.606 246.594,88.251 248.078 C 87.354 249.060,87.604 253.088,88.609 253.844 C 89.245 254.322,89.430 256.000,88.847 256.000 C 88.416 256.000,88.067 257.212,88.299 257.902 C 88.392 258.179,88.633 258.303,88.834 258.179 C 89.035 258.055,89.200 258.323,89.200 258.776 C 89.200 259.333,89.459 259.600,90.000 259.600 C 90.541 259.600,90.800 259.333,90.800 258.776 C 90.800 258.323,90.965 258.055,91.166 258.179 C 91.367 258.303,91.608 258.179,91.701 257.902 C 91.933 257.212,91.584 256.000,91.153 256.000 C 90.548 256.000,90.767 254.098,91.400 253.855 C 92.404 253.470,92.043 250.800,90.986 250.800 C 89.833 250.800,89.017 249.486,89.954 249.139 C 90.855 248.805,91.263 245.200,90.400 245.200 C 90.180 245.200,90.000 245.388,90.000 245.617 M313.300 246.615 C 312.272 247.749,313.210 249.200,314.971 249.200 C 316.596 249.200,316.526 246.233,314.899 246.132 C 314.295 246.094,313.575 246.311,313.300 246.615 M256.800 253.068 C 256.800 253.374,256.534 253.727,256.210 253.852 C 255.445 254.145,254.536 256.001,254.718 256.900 C 254.894 257.773,257.402 257.880,257.880 257.035 C 258.056 256.724,258.740 256.409,259.400 256.335 C 260.993 256.156,261.313 254.426,259.921 253.521 C 258.562 252.639,256.800 252.383,256.800 253.068 M82.685 257.049 C 82.265 257.469,82.339 259.200,82.776 259.200 C 82.983 259.200,83.254 259.037,83.377 258.837 C 83.682 258.344,83.042 256.691,82.685 257.049 M153.494 258.798 C 152.231 260.274,153.442 262.256,155.320 261.784 C 156.850 261.400,157.267 258.400,155.789 258.400 C 155.501 258.400,155.023 258.307,154.727 258.193 C 154.431 258.080,153.876 258.352,153.494 258.798 M80.496 261.504 C 79.567 262.433,78.912 265.472,79.512 266.072 C 80.638 267.198,81.797 266.249,81.921 264.102 C 82.084 261.268,81.605 260.395,80.496 261.504 M150.643 266.633 C 150.288 267.558,150.346 269.600,150.728 269.600 C 151.326 269.600,152.800 267.607,152.800 266.797 C 152.800 265.809,151.011 265.673,150.643 266.633 M249.600 267.000 C 249.600 267.330,249.780 267.600,250.000 267.600 C 250.220 267.600,250.400 267.330,250.400 267.000 C 250.400 266.670,250.220 266.400,250.000 266.400 C 249.780 266.400,249.600 266.670,249.600 267.000 " stroke="none" fill="#f68708" fill-rule="evenodd"></path><path id="path3" d="M197.125 53.100 C 196.384 53.966,192.192 61.129,180.800 81.000 C 178.529 84.960,176.088 89.190,175.374 90.400 C 174.660 91.610,171.333 97.370,167.981 103.200 C 164.629 109.030,160.943 115.420,159.790 117.400 C 158.637 119.380,157.376 121.630,156.988 122.400 C 156.599 123.170,155.879 124.340,155.386 125.000 C 154.894 125.660,152.787 129.170,150.704 132.800 C 148.621 136.430,144.215 144.080,140.914 149.800 C 130.779 167.359,126.133 175.415,120.499 185.200 C 117.522 190.370,114.128 196.175,112.957 198.101 C 110.886 201.505,109.322 204.386,110.492 202.642 C 112.423 199.763,113.636 198.486,115.191 197.700 L 116.970 196.800 155.059 196.800 C 178.839 196.800,193.533 196.947,194.174 197.190 C 195.599 197.732,195.527 199.432,193.962 202.206 C 193.281 203.413,192.818 204.400,192.933 204.400 C 193.047 204.400,194.560 201.835,196.294 198.700 C 198.027 195.565,205.845 181.930,213.666 168.400 C 241.431 120.365,238.467 125.725,238.719 123.104 C 240.420 105.404,229.413 79.643,213.544 64.183 C 204.771 55.637,198.549 51.436,197.125 53.100 M287.200 202.562 C 287.200 202.672,288.010 203.319,289.000 204.000 C 289.990 204.681,290.800 205.148,290.800 205.038 C 290.800 204.928,289.990 204.281,289.000 203.600 C 288.010 202.919,287.200 202.452,287.200 202.562 M281.481 203.100 C 281.389 203.265,280.809 204.300,280.191 205.400 C 279.574 206.500,279.254 207.220,279.481 207.000 C 280.060 206.439,282.122 202.800,281.862 202.800 C 281.744 202.800,281.572 202.935,281.481 203.100 M109.000 204.800 C 108.659 205.460,108.469 206.000,108.579 206.000 C 108.689 206.000,109.059 205.460,109.400 204.800 C 109.741 204.140,109.931 203.600,109.821 203.600 C 109.711 203.600,109.341 204.140,109.000 204.800 M188.581 211.500 C 187.104 214.085,185.819 216.335,185.724 216.500 C 185.630 216.665,185.635 216.800,185.737 216.800 C 185.838 216.800,187.137 214.685,188.624 212.100 C 191.892 206.420,191.689 206.800,191.457 206.800 C 191.352 206.800,190.058 208.915,188.581 211.500 M293.200 206.881 C 293.200 206.967,294.505 208.188,296.100 209.596 C 297.695 211.003,298.550 211.651,298.000 211.037 C 296.944 209.858,293.200 206.616,293.200 206.881 M106.200 209.600 C 105.859 210.260,105.669 210.800,105.779 210.800 C 105.889 210.800,106.259 210.260,106.600 209.600 C 106.941 208.940,107.131 208.400,107.021 208.400 C 106.911 208.400,106.541 208.940,106.200 209.600 M277.905 209.300 C 277.044 210.622,275.846 213.065,276.288 212.600 C 276.811 212.050,278.874 208.400,278.663 208.400 C 278.569 208.400,278.228 208.805,277.905 209.300 M104.600 212.400 C 104.259 213.060,104.069 213.600,104.179 213.600 C 104.289 213.600,104.659 213.060,105.000 212.400 C 105.341 211.740,105.531 211.200,105.421 211.200 C 105.311 211.200,104.941 211.740,104.600 212.400 M299.207 212.109 C 299.203 212.279,300.538 213.848,302.172 215.596 C 305.645 219.309,309.058 223.745,311.793 228.100 C 313.653 231.063,314.568 232.210,313.547 230.300 C 311.012 225.559,299.238 210.624,299.207 212.109 M275.481 213.500 C 275.389 213.665,274.809 214.700,274.191 215.800 C 273.574 216.900,273.254 217.620,273.481 217.400 C 274.060 216.839,276.122 213.200,275.862 213.200 C 275.744 213.200,275.572 213.335,275.481 213.500 M103.481 214.300 C 103.389 214.465,102.809 215.500,102.191 216.600 C 101.574 217.700,101.254 218.420,101.481 218.200 C 102.060 217.639,104.122 214.000,103.862 214.000 C 103.744 214.000,103.572 214.135,103.481 214.300 M183.381 220.500 C 182.343 222.315,181.416 223.935,181.323 224.100 C 181.229 224.265,181.238 224.400,181.341 224.400 C 181.493 224.400,182.854 222.129,185.477 217.500 C 185.571 217.335,185.562 217.200,185.459 217.200 C 185.355 217.200,184.420 218.685,183.381 220.500 M272.200 219.200 C 271.859 219.860,271.669 220.400,271.779 220.400 C 271.889 220.400,272.259 219.860,272.600 219.200 C 272.941 218.540,273.131 218.000,273.021 218.000 C 272.911 218.000,272.541 218.540,272.200 219.200 M100.200 220.000 C 99.859 220.660,99.669 221.200,99.779 221.200 C 99.889 221.200,100.259 220.660,100.600 220.000 C 100.941 219.340,101.131 218.800,101.021 218.800 C 100.911 218.800,100.541 219.340,100.200 220.000 M268.574 225.500 C 267.086 228.085,265.431 230.965,264.896 231.900 C 264.362 232.835,264.016 233.600,264.130 233.600 C 264.243 233.600,265.903 230.855,267.819 227.500 C 269.735 224.145,271.380 221.265,271.475 221.100 C 271.570 220.935,271.565 220.800,271.463 220.800 C 271.362 220.800,270.062 222.915,268.574 225.500 M99.081 221.900 C 98.989 222.065,98.409 223.100,97.791 224.200 C 97.174 225.300,96.854 226.020,97.081 225.800 C 97.660 225.239,99.722 221.600,99.462 221.600 C 99.344 221.600,99.172 221.735,99.081 221.900 M180.200 226.000 C 179.859 226.660,179.669 227.200,179.779 227.200 C 179.889 227.200,180.259 226.660,180.600 226.000 C 180.941 225.340,181.131 224.800,181.021 224.800 C 180.911 224.800,180.541 225.340,180.200 226.000 M178.600 228.800 C 178.259 229.460,178.069 230.000,178.179 230.000 C 178.289 230.000,178.659 229.460,179.000 228.800 C 179.341 228.140,179.531 227.600,179.421 227.600 C 179.311 227.600,178.941 228.140,178.600 228.800 M94.200 230.400 C 93.859 231.060,93.669 231.600,93.779 231.600 C 93.889 231.600,94.259 231.060,94.600 230.400 C 94.941 229.740,95.131 229.200,95.021 229.200 C 94.911 229.200,94.541 229.740,94.200 230.400 M316.330 236.366 C 317.579 238.987,318.666 241.067,318.746 240.987 C 318.926 240.807,314.521 231.600,314.254 231.600 C 314.148 231.600,315.082 233.745,316.330 236.366 M92.600 233.200 C 92.259 233.860,92.069 234.400,92.179 234.400 C 92.289 234.400,92.659 233.860,93.000 233.200 C 93.341 232.540,93.531 232.000,93.421 232.000 C 93.311 232.000,92.941 232.540,92.600 233.200 M175.800 233.600 C 175.459 234.260,175.269 234.800,175.379 234.800 C 175.489 234.800,175.859 234.260,176.200 233.600 C 176.541 232.940,176.731 232.400,176.621 232.400 C 176.511 232.400,176.141 232.940,175.800 233.600 M263.481 234.300 C 263.389 234.465,262.809 235.500,262.191 236.600 C 261.574 237.700,261.254 238.420,261.481 238.200 C 262.060 237.639,264.122 234.000,263.862 234.000 C 263.744 234.000,263.572 234.135,263.481 234.300 M174.200 236.400 C 173.859 237.060,173.669 237.600,173.779 237.600 C 173.889 237.600,174.259 237.060,174.600 236.400 C 174.941 235.740,175.131 235.200,175.021 235.200 C 174.911 235.200,174.541 235.740,174.200 236.400 M89.800 238.000 C 89.459 238.660,89.269 239.200,89.379 239.200 C 89.489 239.200,89.859 238.660,90.200 238.000 C 90.541 237.340,90.731 236.800,90.621 236.800 C 90.511 236.800,90.141 237.340,89.800 238.000 M173.081 238.300 C 172.989 238.465,172.409 239.500,171.791 240.600 C 171.174 241.700,170.854 242.420,171.081 242.200 C 171.660 241.639,173.722 238.000,173.462 238.000 C 173.344 238.000,173.172 238.135,173.081 238.300 M260.200 240.000 C 259.859 240.660,259.669 241.200,259.779 241.200 C 259.889 241.200,260.259 240.660,260.600 240.000 C 260.941 239.340,261.131 238.800,261.021 238.800 C 260.911 238.800,260.541 239.340,260.200 240.000 M88.681 239.900 C 88.589 240.065,88.009 241.100,87.391 242.200 C 86.774 243.300,86.454 244.020,86.681 243.800 C 87.260 243.239,89.322 239.600,89.062 239.600 C 88.944 239.600,88.772 239.735,88.681 239.900 M258.752 242.500 C 258.490 242.995,258.015 243.850,257.696 244.400 C 257.139 245.359,257.143 245.367,257.788 244.600 C 258.586 243.652,259.705 241.600,259.424 241.600 C 259.316 241.600,259.014 242.005,258.752 242.500 M318.997 242.200 C 319.340 243.583,320.843 247.053,320.621 245.951 C 320.505 245.373,320.048 244.113,319.604 243.151 C 319.161 242.188,318.888 241.760,318.997 242.200 M169.800 244.000 C 169.459 244.660,169.269 245.200,169.379 245.200 C 169.489 245.200,169.859 244.660,170.200 244.000 C 170.541 243.340,170.731 242.800,170.621 242.800 C 170.511 242.800,170.141 243.340,169.800 244.000 M168.200 246.800 C 167.859 247.460,167.669 248.000,167.779 248.000 C 167.889 248.000,168.259 247.460,168.600 246.800 C 168.941 246.140,169.131 245.600,169.021 245.600 C 168.911 245.600,168.541 246.140,168.200 246.800 M83.800 248.400 C 83.459 249.060,83.269 249.600,83.379 249.600 C 83.489 249.600,83.859 249.060,84.200 248.400 C 84.541 247.740,84.731 247.200,84.621 247.200 C 84.511 247.200,84.141 247.740,83.800 248.400 M254.200 250.400 C 253.859 251.060,253.669 251.600,253.779 251.600 C 253.889 251.600,254.259 251.060,254.600 250.400 C 254.941 249.740,255.131 249.200,255.021 249.200 C 254.911 249.200,254.541 249.740,254.200 250.400 M82.200 251.200 C 81.859 251.860,81.669 252.400,81.779 252.400 C 81.889 252.400,82.259 251.860,82.600 251.200 C 82.941 250.540,83.131 250.000,83.021 250.000 C 82.911 250.000,82.541 250.540,82.200 251.200 M164.100 253.900 C 162.110 257.279,161.524 258.400,161.748 258.400 C 161.844 258.400,162.459 257.455,163.113 256.300 C 163.766 255.145,164.701 253.525,165.190 252.700 C 165.679 251.875,165.992 251.200,165.885 251.200 C 165.778 251.200,164.975 252.415,164.100 253.900 M322.056 251.600 C 322.056 251.930,322.211 252.560,322.400 253.000 C 322.617 253.504,322.744 253.578,322.744 253.200 C 322.744 252.870,322.589 252.240,322.400 251.800 C 322.183 251.296,322.056 251.222,322.056 251.600 M253.081 252.300 C 252.989 252.465,252.409 253.500,251.791 254.600 C 251.174 255.700,250.854 256.420,251.081 256.200 C 251.660 255.639,253.722 252.000,253.462 252.000 C 253.344 252.000,253.172 252.135,253.081 252.300 M79.381 256.100 C 78.343 257.915,77.416 259.535,77.323 259.700 C 77.229 259.865,77.238 260.000,77.341 260.000 C 77.493 260.000,78.854 257.729,81.477 253.100 C 81.571 252.935,81.562 252.800,81.459 252.800 C 81.355 252.800,80.420 254.285,79.381 256.100 M249.800 258.000 C 249.459 258.660,249.269 259.200,249.379 259.200 C 249.489 259.200,249.859 258.660,250.200 258.000 C 250.541 257.340,250.731 256.800,250.621 256.800 C 250.511 256.800,250.141 257.340,249.800 258.000 M159.381 262.100 C 158.343 263.915,157.416 265.535,157.323 265.700 C 157.229 265.865,157.238 266.000,157.341 266.000 C 157.493 266.000,158.854 263.729,161.477 259.100 C 161.571 258.935,161.562 258.800,161.459 258.800 C 161.355 258.800,160.420 260.285,159.381 262.100 M248.681 259.900 C 248.589 260.065,248.009 261.100,247.391 262.200 C 246.774 263.300,246.454 264.020,246.681 263.800 C 247.260 263.239,249.322 259.600,249.062 259.600 C 248.944 259.600,248.772 259.735,248.681 259.900 M76.200 261.600 C 75.859 262.260,75.669 262.800,75.779 262.800 C 75.889 262.800,76.259 262.260,76.600 261.600 C 76.941 260.940,77.131 260.400,77.021 260.400 C 76.911 260.400,76.541 260.940,76.200 261.600 M324.101 262.200 C 324.105 263.080,324.187 263.393,324.283 262.895 C 324.379 262.398,324.375 261.678,324.275 261.295 C 324.175 260.913,324.096 261.320,324.101 262.200 M75.081 263.500 C 74.989 263.665,74.409 264.700,73.791 265.800 C 73.174 266.900,72.854 267.620,73.081 267.400 C 73.660 266.839,75.722 263.200,75.462 263.200 C 75.344 263.200,75.172 263.335,75.081 263.500 M245.400 265.600 C 245.059 266.260,244.869 266.800,244.979 266.800 C 245.089 266.800,245.459 266.260,245.800 265.600 C 246.141 264.940,246.331 264.400,246.221 264.400 C 246.111 264.400,245.741 264.940,245.400 265.600 M324.520 266.400 C 324.520 267.610,324.595 268.105,324.687 267.500 C 324.778 266.895,324.778 265.905,324.687 265.300 C 324.595 264.695,324.520 265.190,324.520 266.400 M243.751 268.500 C 243.383 269.215,242.819 270.250,242.498 270.800 C 241.939 271.759,241.943 271.767,242.589 271.000 C 243.378 270.063,244.907 267.200,244.618 267.200 C 244.510 267.200,244.119 267.785,243.751 268.500 M324.901 270.200 C 324.905 271.080,324.987 271.393,325.083 270.895 C 325.179 270.398,325.175 269.678,325.075 269.295 C 324.975 268.913,324.896 269.320,324.901 270.200 M154.600 270.400 C 154.259 271.060,154.069 271.600,154.179 271.600 C 154.289 271.600,154.659 271.060,155.000 270.400 C 155.341 269.740,155.531 269.200,155.421 269.200 C 155.311 269.200,154.941 269.740,154.600 270.400 " stroke="none" fill="#ed521b" fill-rule="evenodd"></path><path id="path4" d="M196.115 51.300 C 195.661 51.795,190.886 59.850,185.504 69.200 C 174.979 87.484,160.361 112.790,150.731 129.400 C 148.083 133.966,142.269 144.033,132.596 160.800 C 131.010 163.550,127.943 168.860,125.782 172.600 C 123.620 176.340,119.669 183.180,117.000 187.800 C 100.538 216.299,90.462 233.737,85.799 241.800 C 70.174 268.816,68.693 271.474,68.528 272.800 C 68.352 274.214,69.819 276.882,87.993 308.200 C 93.485 317.663,99.035 327.257,104.366 336.501 C 107.506 341.946,110.533 346.761,111.092 347.201 C 112.264 348.123,193.529 348.495,195.226 347.586 C 196.670 346.813,196.008 346.025,190.500 341.949 C 169.825 326.651,157.535 304.725,155.496 279.500 C 154.943 272.646,151.981 278.628,179.309 231.400 C 183.256 224.580,188.196 216.030,190.288 212.400 C 192.380 208.770,194.769 204.630,195.598 203.200 C 196.427 201.770,200.573 194.570,204.811 187.200 C 209.050 179.830,214.085 171.100,216.000 167.800 C 217.916 164.500,221.607 158.110,224.203 153.600 C 226.798 149.090,229.913 143.690,231.125 141.600 C 241.363 123.938,241.054 124.683,240.607 118.671 C 238.603 91.722,224.862 67.802,202.823 52.900 C 198.774 50.162,197.448 49.845,196.115 51.300 M201.238 54.055 C 223.621 68.512,240.905 100.354,238.719 123.104 C 238.467 125.724,241.464 120.305,213.668 168.400 C 205.848 181.930,198.200 195.250,196.673 198.000 C 195.145 200.750,192.593 205.250,191.001 208.000 C 178.584 229.451,169.577 245.032,164.179 254.400 C 160.693 260.450,156.950 266.930,155.861 268.800 C 153.518 272.824,153.311 274.101,153.960 280.486 C 156.480 305.254,168.921 327.728,188.000 341.977 C 191.663 344.712,192.493 345.526,192.164 346.059 C 191.691 346.823,112.467 346.468,111.700 345.698 C 111.315 345.312,108.765 341.127,106.033 336.398 C 103.301 331.669,98.153 322.760,94.593 316.600 C 91.033 310.440,85.269 300.450,81.784 294.400 C 78.299 288.350,74.305 281.420,72.909 279.000 C 69.121 272.436,68.355 275.209,79.095 256.600 C 95.096 228.876,108.658 205.467,116.868 191.400 C 119.180 187.440,123.513 179.970,126.498 174.800 C 136.889 156.801,146.943 139.357,150.705 132.800 C 152.788 129.170,154.894 125.660,155.386 125.000 C 155.879 124.340,156.599 123.170,156.988 122.400 C 157.376 121.630,158.637 119.380,159.790 117.400 C 160.943 115.420,164.629 109.030,167.981 103.200 C 171.333 97.370,174.660 91.610,175.374 90.400 C 176.088 89.190,178.529 84.960,180.800 81.000 C 196.572 53.489,197.235 52.400,198.200 52.400 C 198.462 52.400,199.829 53.145,201.238 54.055 M282.114 199.486 C 281.262 200.338,277.590 206.625,251.679 251.600 C 247.570 258.732,242.637 267.277,240.595 270.800 C 204.215 333.565,197.207 345.821,197.203 346.686 C 197.201 346.953,197.548 347.358,197.974 347.586 C 199.142 348.211,281.619 348.156,282.995 347.529 C 284.221 346.971,283.741 347.755,298.014 323.000 C 304.230 312.220,313.010 297.010,317.526 289.200 C 327.208 272.454,326.965 273.020,326.617 268.000 C 324.719 240.675,310.488 215.925,288.145 201.093 C 284.690 198.800,283.198 198.402,282.114 199.486 M287.238 202.447 C 308.379 216.038,322.181 239.488,324.778 266.230 C 325.431 272.951,325.828 271.870,317.297 286.600 C 307.472 303.563,301.584 313.753,294.991 325.200 C 284.993 342.561,283.291 345.426,282.683 345.931 C 281.633 346.802,199.847 346.390,199.678 345.512 C 199.606 345.134,201.030 342.254,202.845 339.112 C 204.659 335.970,207.703 330.700,209.608 327.400 C 211.514 324.100,214.062 319.690,215.271 317.600 C 216.481 315.510,222.291 305.430,228.183 295.200 C 234.076 284.970,239.348 275.894,239.899 275.032 C 240.450 274.170,243.819 268.410,247.386 262.232 C 250.953 256.054,255.225 248.660,256.879 245.800 C 258.534 242.940,262.375 236.280,265.416 231.000 C 268.457 225.720,272.560 218.610,274.535 215.200 C 276.509 211.790,278.838 207.740,279.710 206.200 C 283.150 200.125,283.418 199.991,287.238 202.447 " stroke="none" fill="#422218" fill-rule="evenodd"></path></g></svg>