<?xml version="1.0" encoding="UTF-8"?>
<!DOCTYPE svg PUBLIC "-//W3C//DTD SVG 1.1//EN" "http://www.w3.org/Graphics/SVG/1.1/DTD/svg11.dtd">
<!-- Creator: CorelDRAW X7 -->
<svg xmlns="http://www.w3.org/2000/svg" xml:space="preserve" version="1.1" style="shape-rendering:geometricPrecision; text-rendering:geometricPrecision; image-rendering:optimizeQuality; fill-rule:evenodd; clip-rule:evenodd"
viewBox="4200 7100 8200 3000"
 xmlns:xlink="http://www.w3.org/1999/xlink">
 <defs>
  <style type="text/css">
   <![CDATA[
    .fil2 {fill:none}
    .fil1 {fill:white}
    .fil4 {fill:#EE521C}
    .fil3 {fill:#F16C12}
    .fil5 {fill:#F58709}
    .fil6 {fill:#F9A100}
    .fil0 {fill:white}
   ]]>
  </style>
 </defs>
 <g id="Layer_x0020_1">
  <g id="_745206000">
   <path class="fil1" d="M7118 8942l0 -383 393 0 0 -133 -393 0 0 -192c0,-12 0,-26 11,-36 10,-11 20,-10 31,-10l497 0 0 -133 -578 0c-30,0 -65,3 -95,32 -27,25 -33,57 -33,85l0 770 167 0zm617 0l148 0 0 -672 -148 0 0 672zm148 -769l0 -118 -148 0 0 118 148 0zm123 769l149 0 0 -379c0,-51 6,-97 34,-132 35,-41 87,-47 126,-47l63 0 0 -114 -101 0c-52,0 -139,4 -201,59 -57,49 -70,121 -70,195l0 418zm1052 0l0 -114 -328 0c-54,0 -116,-8 -135,-80 -5,-20 -9,-63 -9,-92l390 0c27,0 52,-5 72,-26 28,-28 32,-67 32,-101 0,-85 -16,-169 -95,-218 -62,-39 -143,-43 -222,-43 -63,0 -177,0 -251,63 -73,64 -80,156 -80,282 0,88 4,181 49,244 55,79 136,85 205,85l372 0zm-472 -400c1,-45 0,-81 30,-116 41,-45 102,-44 141,-44 42,0 90,2 127,30 21,17 43,49 43,90 0,18 -4,40 -33,40l-308 0zm748 400l187 0c69,0 173,-5 236,-96 48,-69 53,-165 53,-254 0,-73 -2,-177 -71,-248 -64,-67 -154,-74 -197,-74l-235 0c-25,0 -58,3 -83,22 -17,13 -38,38 -38,82l0 784 148 0 0 -216zm0 -114l0 -412c0,-7 2,-15 10,-23 5,-3 14,-9 20,-9l146 0c66,0 110,33 129,77 8,17 18,53 18,144 0,100 -14,141 -28,161 -16,27 -53,62 -127,62l-168 0zm582 114l148 0 0 -379c0,-51 7,-97 34,-132 36,-41 88,-47 127,-47l62 0 0 -114 -100 0c-52,0 -139,4 -201,59 -57,49 -70,121 -70,195l0 418zm758 -679c-80,0 -198,2 -271,71 -77,72 -86,199 -86,275 0,68 6,195 86,268 73,68 191,73 271,73 77,0 199,-5 271,-73 50,-46 87,-131 87,-273 0,-71 -9,-198 -87,-270 -73,-69 -191,-71 -271,-71zm-204 345c0,-44 0,-130 42,-178 42,-48 114,-53 162,-53 53,0 118,5 161,53 47,52 43,128 43,178 0,58 0,122 -44,172 -45,49 -104,56 -160,56 -53,0 -118,-7 -161,-56 -42,-48 -43,-117 -43,-172zm1007 -345c-80,0 -198,2 -272,71 -77,72 -86,199 -86,275 0,68 7,195 86,268 74,68 192,73 272,73 77,0 199,-5 271,-73 49,-46 86,-131 86,-273 0,-71 -9,-198 -86,-270 -74,-69 -191,-71 -271,-71zm-204 345c0,-44 0,-130 41,-178 42,-48 115,-53 163,-53 53,0 118,5 161,53 47,52 43,128 43,178 0,58 0,122 -45,172 -44,49 -104,56 -159,56 -54,0 -118,-7 -161,-56 -42,-48 -43,-117 -43,-172zm868 334l0 -558 184 0 0 -114 -184 0c-1,-54 19,-82 38,-95 27,-17 70,-20 146,-20l0 -109c-76,-2 -199,4 -262,56 -57,47 -69,125 -70,170l-94 0 0 112 94 0 0 558 148 0z"/>
   <g>
    <line class="fil2" x1="5271" y1="7260" x2="4342" y2= "8870" />
    <polygon class="fil3" points="5581,7797 5298,7721 4961,7797 4652,8333 4652,8333 4877,8396 5271,8333 "/>
    <path class="fil4" d="M4961 7797l302 0 318 0c0,-229 -125,-430 -310,-537l0 0 -310 537z"/>
    <path class="fil5" d="M5271 8333l-619 0c0,0 0,0 0,0 -1,0 -1,0 -1,0l-309 537 362 120 257 -120 310 -537 0 0zm310 537l277 107 342 -107 0 0c0,-229 -124,-430 -309,-537l-1 0 -309 537z"/>
    <path class="fil6" d="M4961 8870l-619 0 310 536 0 0 619 0c-185,-107 -310,-307 -310,-536l0 0zm1239 0l-619 0 -310 536 619 0 310 -536z"/>
   </g>
  </g>
 </g>
</svg>
