<svg id="svg" version="1.1" xmlns="http://www.w3.org/2000/svg" xmlns:xlink="http://www.w3.org/1999/xlink" width="400" height="174.61406518010293" viewBox="0, 0, 400,174.61406518010293"><g id="svgg"><path id="path0" d="M53.612 103.587 C 53.462 103.829,53.593 104.084,56.229 108.655 C 57.592 111.017,59.972 115.150,61.519 117.839 C 63.065 120.527,64.459 122.824,64.617 122.942 C 64.965 123.203,85.144 123.260,85.049 123.000 C 85.017 122.913,84.335 122.242,83.533 121.508 C 78.780 117.158,76.215 112.170,75.470 105.829 C 75.365 104.934,75.244 104.029,75.201 103.816 L 75.122 103.431 64.415 103.431 C 58.170 103.431,53.668 103.496,53.612 103.587 M100.188 103.901 C 99.764 104.297,96.923 109.120,90.115 121.000 C 89.524 122.031,89.079 122.938,89.127 123.015 C 89.326 123.337,110.732 123.181,111.008 122.856 C 111.148 122.691,111.842 121.552,112.551 120.326 C 113.261 119.099,114.576 116.822,115.476 115.266 C 116.375 113.709,118.203 110.546,119.538 108.236 C 120.873 105.926,121.942 103.919,121.915 103.776 C 121.871 103.548,120.572 103.511,111.280 103.472 L 100.694 103.428 100.188 103.901 " stroke="none" fill="#f9a101" fill-rule="evenodd"></path><path id="path1" d="M64.868 83.319 C 64.675 83.484,63.653 85.124,62.596 86.964 C 61.540 88.804,60.118 91.274,59.437 92.453 C 58.756 93.632,57.292 96.179,56.184 98.113 C 55.075 100.047,53.944 101.984,53.671 102.416 C 53.397 102.849,53.173 103.376,53.173 103.587 C 53.173 104.186,64.157 123.101,64.631 123.319 C 65.085 123.527,85.129 123.556,85.656 123.349 C 85.925 123.243,85.713 122.997,84.345 121.826 C 79.028 117.279,76.026 111.307,75.701 104.631 L 75.613 102.830 78.647 97.599 C 80.316 94.721,82.666 90.669,83.870 88.593 C 86.461 84.126,86.839 83.404,86.703 83.185 C 86.492 82.842,65.272 82.973,64.868 83.319 M111.215 84.350 C 111.111 84.516,110.136 86.195,109.047 88.081 C 107.958 89.966,106.241 92.937,105.230 94.683 C 104.220 96.428,102.773 98.937,102.015 100.257 C 101.257 101.578,100.392 102.967,100.093 103.345 C 99.479 104.119,88.868 122.454,88.731 122.975 C 88.592 123.506,88.765 123.514,100.236 123.462 L 111.022 123.413 111.300 123.003 C 112.062 121.879,122.325 103.972,122.420 103.602 C 122.806 102.093,121.738 96.915,120.444 94.024 C 118.310 89.255,112.171 82.819,111.215 84.350 M75.201 103.816 C 75.244 104.029,75.365 104.934,75.470 105.829 C 76.215 112.170,78.780 117.158,83.533 121.508 C 84.335 122.242,85.017 122.913,85.049 123.000 C 85.144 123.260,64.965 123.203,64.617 122.942 C 64.459 122.824,63.065 120.527,61.519 117.839 C 59.972 115.150,57.592 111.017,56.229 108.655 C 53.593 104.084,53.462 103.829,53.612 103.587 C 53.668 103.496,58.170 103.431,64.415 103.431 L 75.122 103.431 75.201 103.816 M121.915 103.776 C 121.942 103.919,120.873 105.926,119.538 108.236 C 118.203 110.546,116.375 113.709,115.476 115.266 C 114.576 116.822,113.261 119.099,112.551 120.326 C 111.842 121.552,111.148 122.691,111.008 122.856 C 110.732 123.181,89.326 123.337,89.127 123.015 C 89.079 122.938,89.524 122.031,90.115 121.000 C 96.923 109.120,99.764 104.297,100.188 103.901 L 100.694 103.428 111.280 103.472 C 120.572 103.511,121.871 103.548,121.915 103.776 " stroke="none" fill="#f58809" fill-rule="evenodd"></path><path id="path2" d="M76.601 62.993 C 76.362 63.205,75.060 65.309,73.706 67.667 C 71.336 71.796,69.873 74.324,66.658 79.846 C 65.834 81.261,64.939 82.689,64.670 83.019 C 64.225 83.565,53.641 101.775,53.047 103.017 C 52.730 103.678,52.190 102.634,58.538 113.636 C 64.250 123.538,64.229 123.504,64.634 123.488 C 64.872 123.478,64.862 123.446,64.580 123.308 C 64.150 123.097,53.173 104.118,53.173 103.587 C 53.173 103.376,53.397 102.849,53.671 102.416 C 53.944 101.984,55.075 100.047,56.184 98.113 C 57.292 96.179,58.756 93.632,59.437 92.453 C 60.118 91.274,61.540 88.804,62.596 86.964 C 63.653 85.124,64.675 83.484,64.868 83.319 C 65.272 82.973,86.492 82.842,86.703 83.185 C 86.839 83.404,86.461 84.126,83.870 88.593 C 82.666 90.669,80.316 94.721,78.647 97.599 L 75.613 102.830 75.701 104.631 C 76.026 111.307,79.028 117.279,84.345 121.826 C 85.713 122.997,85.925 123.243,85.656 123.349 C 85.369 123.461,85.376 123.476,85.720 123.487 C 86.403 123.508,86.143 123.029,84.949 122.065 C 79.564 117.721,76.316 111.572,75.871 104.882 C 75.788 103.636,75.823 103.227,76.048 102.790 C 76.203 102.492,78.747 98.056,81.702 92.933 C 84.657 87.811,87.162 83.366,87.269 83.057 C 87.494 82.409,88.255 81.058,94.152 70.848 C 96.519 66.748,98.456 63.216,98.456 63.000 L 98.456 62.607 87.745 62.607 L 77.035 62.607 76.601 62.993 M111.116 84.005 C 110.974 84.170,110.061 85.695,109.088 87.393 C 104.254 95.826,100.404 102.445,99.660 103.602 C 97.957 106.250,88.508 122.811,88.508 123.148 C 88.508 123.369,88.619 123.498,88.808 123.497 C 89.056 123.494,89.065 123.466,88.861 123.337 C 88.659 123.210,88.651 123.097,88.816 122.736 C 89.291 121.693,99.598 103.969,100.093 103.345 C 100.392 102.967,101.257 101.578,102.015 100.257 C 102.773 98.937,104.220 96.428,105.230 94.683 C 106.241 92.937,107.958 89.966,109.047 88.081 C 111.537 83.767,111.353 84.048,111.688 84.048 C 111.845 84.048,112.656 84.577,113.491 85.223 C 118.588 89.170,121.693 94.792,122.337 101.240 C 122.592 103.791,123.005 102.825,117.825 111.803 C 111.526 122.722,111.181 123.294,110.850 123.381 C 110.577 123.452,110.577 123.461,110.840 123.479 C 111.283 123.509,111.548 123.083,117.339 113.036 L 122.727 103.688 122.690 102.112 C 122.536 95.614,118.885 88.826,113.327 84.706 C 111.892 83.642,111.528 83.526,111.116 84.005 M70.026 123.628 C 72.832 123.654,77.425 123.654,80.232 123.628 C 83.038 123.601,80.742 123.580,75.129 123.580 C 69.515 123.580,67.219 123.601,70.026 123.628 M94.468 123.628 C 97.416 123.654,102.241 123.654,105.189 123.628 C 108.137 123.601,105.725 123.580,99.828 123.580 C 93.932 123.580,91.520 123.601,94.468 123.628 " stroke="none" fill="#f16c13" fill-rule="evenodd"></path><path id="path3" d="M87.538 43.094 C 87.347 43.308,85.503 46.415,83.441 50.000 C 81.378 53.585,78.868 57.946,77.864 59.691 C 76.860 61.437,74.765 65.064,73.208 67.753 C 71.650 70.442,68.908 75.189,67.113 78.302 C 65.319 81.415,63.679 84.252,63.469 84.605 C 63.260 84.959,63.128 85.249,63.178 85.249 C 63.228 85.249,63.517 84.813,63.822 84.281 C 64.126 83.749,64.581 83.074,64.832 82.780 C 65.083 82.487,65.911 81.166,66.673 79.846 C 67.435 78.525,68.775 76.209,69.652 74.700 C 70.528 73.190,72.352 70.026,73.706 67.667 C 75.060 65.309,76.362 63.205,76.601 62.993 L 77.035 62.607 87.745 62.607 L 98.456 62.607 98.456 63.000 C 98.456 63.216,96.519 66.748,94.152 70.848 C 88.268 81.036,87.494 82.408,87.269 83.053 C 87.162 83.360,86.695 84.269,86.231 85.073 C 85.184 86.886,84.983 87.274,85.206 87.050 C 85.300 86.955,86.842 84.331,88.633 81.218 C 90.424 78.105,93.529 72.716,95.534 69.242 C 99.561 62.264,99.451 62.549,99.158 59.848 C 98.475 53.562,94.827 47.332,89.708 43.712 C 88.258 42.686,87.975 42.606,87.538 43.094 M111.047 83.919 C 110.723 84.302,110.723 84.303,111.063 84.028 C 111.252 83.875,111.522 83.707,111.664 83.655 C 111.882 83.575,111.880 83.558,111.648 83.547 C 111.497 83.540,111.227 83.707,111.047 83.919 M112.864 84.273 C 112.864 84.316,113.148 84.566,113.494 84.831 C 113.841 85.095,114.070 85.223,114.004 85.116 C 113.868 84.897,112.864 84.154,112.864 84.273 M110.377 84.906 C 110.231 85.189,110.150 85.420,110.197 85.420 C 110.244 85.420,110.403 85.189,110.549 84.906 C 110.695 84.623,110.776 84.391,110.729 84.391 C 110.682 84.391,110.524 84.623,110.377 84.906 M115.622 86.632 C 116.431 87.428,117.577 88.735,118.170 89.537 C 119.340 91.122,119.627 91.454,119.133 90.652 C 118.265 89.245,116.344 87.018,115.108 85.984 C 114.441 85.428,114.598 85.624,115.622 86.632 M62.693 85.935 C 62.547 86.218,62.465 86.449,62.513 86.449 C 62.560 86.449,62.718 86.218,62.864 85.935 C 63.011 85.652,63.092 85.420,63.045 85.420 C 62.998 85.420,62.839 85.652,62.693 85.935 M109.177 86.964 C 109.030 87.247,108.949 87.479,108.996 87.479 C 109.044 87.479,109.202 87.247,109.348 86.964 C 109.495 86.681,109.576 86.449,109.529 86.449 C 109.481 86.449,109.323 86.681,109.177 86.964 M61.484 88.036 C 61.039 88.814,60.642 89.509,60.602 89.580 C 60.561 89.651,60.565 89.708,60.610 89.708 C 60.674 89.708,61.258 88.735,62.383 86.750 C 62.423 86.679,62.420 86.621,62.375 86.621 C 62.331 86.621,61.930 87.258,61.484 88.036 M84.648 87.822 C 84.502 88.105,84.421 88.336,84.468 88.336 C 84.515 88.336,84.674 88.105,84.820 87.822 C 84.966 87.539,85.047 87.307,85.000 87.307 C 84.953 87.307,84.795 87.539,84.648 87.822 M108.491 88.165 C 108.344 88.448,108.263 88.679,108.310 88.679 C 108.357 88.679,108.516 88.448,108.662 88.165 C 108.808 87.882,108.890 87.650,108.842 87.650 C 108.795 87.650,108.637 87.882,108.491 88.165 M83.440 89.923 C 82.994 90.701,82.597 91.396,82.557 91.467 C 82.517 91.537,82.520 91.595,82.565 91.595 C 82.630 91.595,83.213 90.621,84.338 88.636 C 84.379 88.566,84.375 88.508,84.330 88.508 C 84.286 88.508,83.885 89.145,83.440 89.923 M106.338 91.895 C 105.373 93.570,104.551 94.998,104.512 95.069 C 104.472 95.139,104.475 95.197,104.518 95.197 C 104.578 95.197,106.164 92.504,108.180 88.979 C 108.220 88.909,108.217 88.851,108.173 88.851 C 108.129 88.851,107.304 90.221,106.338 91.895 M60.120 90.395 C 59.974 90.678,59.893 90.909,59.940 90.909 C 59.987 90.909,60.145 90.678,60.292 90.395 C 60.438 90.111,60.519 89.880,60.472 89.880 C 60.425 89.880,60.266 90.111,60.120 90.395 M59.434 91.595 C 59.288 91.878,59.206 92.110,59.254 92.110 C 59.301 92.110,59.459 91.878,59.605 91.595 C 59.752 91.312,59.833 91.081,59.786 91.081 C 59.739 91.081,59.580 91.312,59.434 91.595 M119.640 91.767 C 119.786 92.050,119.944 92.281,119.992 92.281 C 120.039 92.281,119.958 92.050,119.811 91.767 C 119.665 91.484,119.507 91.252,119.459 91.252 C 119.412 91.252,119.493 91.484,119.640 91.767 M82.075 92.281 C 81.929 92.564,81.848 92.796,81.895 92.796 C 81.942 92.796,82.101 92.564,82.247 92.281 C 82.393 91.998,82.475 91.767,82.427 91.767 C 82.380 91.767,82.222 91.998,82.075 92.281 M58.954 92.410 C 58.915 92.481,58.666 92.925,58.401 93.396 C 58.136 93.868,57.999 94.177,58.096 94.082 C 58.345 93.842,59.229 92.281,59.117 92.281 C 59.067 92.281,58.993 92.339,58.954 92.410 M80.875 94.340 C 80.728 94.623,80.647 94.854,80.694 94.854 C 80.742 94.854,80.900 94.623,81.046 94.340 C 81.193 94.057,81.274 93.825,81.227 93.825 C 81.179 93.825,81.021 94.057,80.875 94.340 M57.547 94.854 C 57.401 95.137,57.320 95.369,57.367 95.369 C 57.414 95.369,57.572 95.137,57.719 94.854 C 57.865 94.571,57.946 94.340,57.899 94.340 C 57.852 94.340,57.694 94.571,57.547 94.854 M121.112 94.683 C 121.104 94.730,121.249 95.154,121.433 95.626 C 121.617 96.098,121.769 96.368,121.771 96.226 C 121.775 95.983,121.141 94.500,121.112 94.683 M80.189 95.540 C 80.042 95.823,79.961 96.055,80.008 96.055 C 80.056 96.055,80.214 95.823,80.360 95.540 C 80.507 95.257,80.588 95.026,80.541 95.026 C 80.493 95.026,80.335 95.257,80.189 95.540 M104.031 95.883 C 103.885 96.166,103.803 96.398,103.851 96.398 C 103.898 96.398,104.056 96.166,104.202 95.883 C 104.349 95.600,104.430 95.369,104.383 95.369 C 104.336 95.369,104.177 95.600,104.031 95.883 M56.861 96.055 C 56.715 96.338,56.634 96.569,56.681 96.569 C 56.728 96.569,56.886 96.338,57.033 96.055 C 57.179 95.772,57.260 95.540,57.213 95.540 C 57.166 95.540,57.007 95.772,56.861 96.055 M79.503 96.741 C 79.356 97.024,79.275 97.256,79.322 97.256 C 79.369 97.256,79.528 97.024,79.674 96.741 C 79.820 96.458,79.902 96.226,79.854 96.226 C 79.807 96.226,79.649 96.458,79.503 96.741 M103.345 97.084 C 103.198 97.367,103.117 97.599,103.164 97.599 C 103.212 97.599,103.370 97.367,103.516 97.084 C 103.663 96.801,103.744 96.569,103.697 96.569 C 103.649 96.569,103.491 96.801,103.345 97.084 M56.381 96.870 C 56.342 96.940,56.093 97.384,55.828 97.856 C 55.563 98.328,55.426 98.636,55.524 98.542 C 55.772 98.301,56.656 96.741,56.544 96.741 C 56.494 96.741,56.420 96.799,56.381 96.870 M121.985 97.256 C 121.993 97.701,122.263 98.433,122.269 98.027 C 122.272 97.839,122.208 97.530,122.127 97.341 C 122.037 97.131,121.981 97.098,121.985 97.256 M77.606 100.043 C 75.886 103.040,75.873 103.065,76.107 102.830 C 76.234 102.702,78.153 99.424,79.194 97.556 C 79.233 97.485,79.230 97.427,79.186 97.427 C 79.143 97.427,78.432 98.604,77.606 100.043 M102.144 99.142 C 101.998 99.425,101.917 99.657,101.964 99.657 C 102.011 99.657,102.169 99.425,102.316 99.142 C 102.462 98.859,102.543 98.628,102.496 98.628 C 102.449 98.628,102.290 98.859,102.144 99.142 M54.974 99.314 C 54.828 99.597,54.747 99.828,54.794 99.828 C 54.841 99.828,54.999 99.597,55.146 99.314 C 55.292 99.031,55.373 98.799,55.326 98.799 C 55.279 98.799,55.121 99.031,54.974 99.314 M101.458 100.343 C 101.312 100.626,101.230 100.858,101.278 100.858 C 101.325 100.858,101.483 100.626,101.630 100.343 C 101.776 100.060,101.857 99.828,101.810 99.828 C 101.763 99.828,101.604 100.060,101.458 100.343 M54.494 100.129 C 54.455 100.199,54.206 100.643,53.941 101.115 C 53.677 101.587,53.539 101.895,53.637 101.801 C 53.885 101.560,54.769 100.000,54.658 100.000 C 54.607 100.000,54.534 100.058,54.494 100.129 M122.662 101.215 C 122.673 101.632,122.743 102.204,122.818 102.487 C 122.900 102.799,122.916 102.529,122.860 101.801 C 122.753 100.438,122.631 100.076,122.662 101.215 M100.978 101.158 C 100.939 101.229,100.690 101.672,100.425 102.144 C 100.160 102.616,100.023 102.925,100.120 102.830 C 100.369 102.590,101.253 101.029,101.141 101.029 C 101.091 101.029,101.017 101.087,100.978 101.158 " stroke="none" fill="#ed521b" fill-rule="evenodd"></path><path id="path4" d="M350.772 72.649 C 346.059 73.396,344.228 75.192,343.485 79.798 C 343.338 80.710,342.887 80.961,341.392 80.961 C 339.881 80.961,339.794 81.067,339.794 82.910 C 339.794 84.594,339.932 84.734,341.595 84.734 C 343.571 84.734,343.396 83.707,343.396 95.347 C 343.396 102.953,343.447 105.471,343.602 105.626 C 343.944 105.968,348.304 105.909,348.438 105.561 C 348.495 105.411,348.542 100.836,348.542 95.393 C 348.542 86.714,348.575 85.450,348.809 85.115 C 349.068 84.746,349.168 84.734,352.148 84.734 C 355.749 84.734,355.576 84.835,355.572 82.730 C 355.568 80.777,355.765 80.884,352.064 80.818 C 348.358 80.752,348.373 80.760,348.708 79.191 C 349.188 76.945,350.824 75.992,354.211 75.988 C 355.471 75.986,355.575 75.849,355.575 74.185 C 355.575 73.333,355.495 72.716,355.369 72.590 C 355.096 72.318,352.664 72.349,350.772 72.649 M154.502 72.972 C 153.514 73.325,152.734 74.008,152.290 74.910 L 151.887 75.729 151.839 90.543 C 151.804 101.660,151.842 105.417,151.992 105.599 C 152.153 105.792,152.733 105.831,154.870 105.793 L 157.547 105.746 157.633 98.868 C 157.701 93.388,157.767 91.933,157.954 91.707 C 158.166 91.452,158.877 91.423,164.987 91.421 C 168.725 91.420,171.958 91.372,172.170 91.316 C 172.677 91.180,172.783 87.088,172.284 86.897 C 172.135 86.839,168.947 86.792,165.199 86.792 C 159.583 86.792,158.326 86.750,158.052 86.549 C 157.568 86.195,157.538 78.734,158.017 78.002 C 158.526 77.226,159.013 77.189,168.705 77.188 C 175.553 77.187,177.855 77.136,178.010 76.981 C 178.268 76.723,178.291 73.532,178.039 73.059 C 177.808 72.629,155.694 72.547,154.502 72.972 M181.751 72.999 C 181.557 73.504,181.637 76.251,181.852 76.467 C 182.239 76.853,186.399 76.743,186.615 76.341 C 186.866 75.872,186.843 73.190,186.587 72.933 C 186.245 72.591,181.884 72.650,181.751 72.999 M288.851 80.794 C 282.754 81.637,280.092 85.058,279.811 92.408 C 279.428 102.411,283.047 106.173,293.053 106.173 C 302.898 106.173,306.266 102.866,306.241 93.225 C 306.221 85.796,304.237 82.529,298.885 81.114 C 297.332 80.704,290.971 80.500,288.851 80.794 M319.897 80.734 C 313.081 81.435,310.373 85.063,310.381 93.482 C 310.390 102.968,313.750 106.178,323.666 106.174 C 333.199 106.170,336.878 102.587,336.878 93.310 C 336.878 83.235,331.843 79.506,319.897 80.734 M200.502 80.963 C 195.978 81.294,193.556 82.975,192.351 86.621 C 192.037 87.570,191.740 104.332,192.017 105.437 C 192.171 106.050,196.854 106.058,196.995 105.446 C 197.043 105.234,197.105 101.509,197.132 97.170 C 197.175 90.203,197.215 89.175,197.480 88.387 C 198.255 86.073,200.038 84.899,202.951 84.785 C 205.710 84.677,205.489 84.845,205.489 82.854 C 205.489 81.836,205.416 81.107,205.306 81.039 C 204.997 80.848,202.588 80.810,200.502 80.963 M216.375 81.027 C 210.732 81.947,208.687 84.409,208.223 90.843 C 207.665 98.581,209.020 103.201,212.341 104.884 C 214.156 105.804,214.579 105.839,223.273 105.791 L 231.304 105.746 231.353 104.142 C 231.424 101.857,232.089 102.058,224.458 102.058 C 215.967 102.058,215.331 101.907,214.172 99.606 C 213.518 98.307,213.298 95.634,213.815 95.256 C 214.068 95.072,215.617 95.026,221.602 95.025 C 231.877 95.023,232.178 94.881,232.150 90.051 C 232.120 84.978,230.074 82.195,225.643 81.202 C 223.995 80.832,218.234 80.723,216.375 81.027 M240.474 80.949 C 238.380 81.169,237.252 82.036,236.895 83.700 C 236.640 84.889,236.630 113.258,236.884 113.733 C 237.100 114.136,241.260 114.246,241.647 113.859 C 241.793 113.713,241.852 112.639,241.852 110.119 C 241.852 105.425,241.180 105.941,247.456 105.813 C 253.871 105.682,254.833 105.445,256.954 103.482 C 259.127 101.471,259.903 98.767,259.923 93.139 C 259.949 85.825,257.978 82.447,252.961 81.207 C 251.724 80.901,242.701 80.715,240.474 80.949 M273.156 80.957 C 268.549 81.305,266.098 82.988,264.909 86.621 C 264.518 87.816,264.303 105.138,264.674 105.585 C 265.067 106.058,269.439 105.933,269.550 105.446 C 269.598 105.234,269.660 101.509,269.688 97.170 C 269.745 88.383,269.759 88.271,270.925 86.744 C 271.919 85.441,273.319 84.863,275.701 84.769 C 278.102 84.674,278.045 84.724,278.045 82.736 C 278.045 80.619,277.975 80.593,273.156 80.957 M181.726 81.175 C 181.680 81.293,181.664 86.870,181.688 93.568 L 181.732 105.746 184.024 105.794 C 185.568 105.826,186.394 105.778,186.554 105.644 C 186.802 105.439,186.931 81.865,186.688 81.232 C 186.551 80.874,181.861 80.820,181.726 81.175 M295.278 84.571 C 299.624 85.199,301.152 87.706,300.987 93.939 C 300.838 99.544,299.246 101.653,294.711 102.255 C 287.865 103.163,284.854 100.109,285.129 92.539 C 285.330 87.005,286.758 85.182,291.424 84.500 C 292.311 84.371,294.124 84.404,295.278 84.571 M325.710 84.566 C 329.851 85.104,331.553 87.598,331.557 93.139 C 331.562 100.077,328.903 102.799,322.579 102.328 C 317.351 101.938,315.695 99.789,315.695 93.396 C 315.695 85.971,318.369 83.613,325.710 84.566 M222.213 84.741 C 225.478 85.207,227.674 87.938,226.686 90.302 C 226.317 91.185,225.839 91.250,219.811 91.249 C 213.513 91.247,213.661 91.281,213.584 89.818 C 213.385 85.987,216.813 83.970,222.213 84.741 M251.495 85.301 C 254.111 86.586,255.078 89.743,254.578 95.369 C 254.086 100.900,252.596 102.052,245.936 102.056 C 241.326 102.059,241.852 103.123,241.852 93.812 C 241.852 85.824,241.889 85.433,242.685 84.986 C 243.606 84.471,250.290 84.709,251.495 85.301 " stroke="none" fill="#ffffff" fill-rule="evenodd"></path><path id="path5" d="M86.820 43.696 C 86.450 44.333,83.848 48.829,81.038 53.688 C 78.229 58.546,73.294 67.075,70.073 72.642 C 54.420 99.689,52.487 103.073,52.487 103.430 C 52.487 103.765,54.248 106.885,62.119 120.495 C 63.283 122.507,64.051 123.654,64.327 123.794 C 64.653 123.959,67.275 124.009,75.653 124.011 C 88.716 124.014,88.230 124.104,85.624 122.181 C 80.483 118.387,77.070 112.443,76.317 105.971 C 76.029 103.495,75.800 104.007,82.031 93.210 C 101.875 58.820,99.730 62.862,99.478 60.337 C 98.803 53.548,95.143 47.236,89.644 43.374 C 87.967 42.197,87.673 42.230,86.820 43.696 M89.708 43.712 C 94.827 47.332,98.475 53.562,99.158 59.848 C 99.451 62.547,99.556 62.272,95.584 69.157 C 86.862 84.273,81.387 93.743,78.745 98.285 L 75.901 103.173 75.921 104.717 C 76.002 110.892,79.460 117.576,84.856 121.985 C 87.039 123.769,87.429 123.707,74.375 123.638 L 64.445 123.585 64.084 123.101 C 63.149 121.851,52.830 103.780,52.830 103.394 C 52.830 103.212,53.016 102.740,53.244 102.346 C 54.435 100.284,64.941 82.070,67.459 77.702 C 69.063 74.919,71.650 70.442,73.207 67.753 C 74.765 65.064,76.860 61.437,77.864 59.691 C 89.223 39.947,87.559 42.192,89.708 43.712 M353.345 71.811 C 346.861 72.196,344.004 74.130,343.094 78.752 C 342.777 80.359,342.665 80.446,340.908 80.446 C 339.425 80.446,339.280 80.661,339.280 82.847 C 339.280 85.067,339.411 85.249,341.016 85.249 C 343.089 85.249,342.882 84.089,342.882 95.685 C 342.882 104.114,342.921 105.821,343.125 106.099 C 343.467 106.568,347.970 106.707,348.638 106.270 L 349.057 105.996 349.057 95.892 C 349.057 86.935,349.087 85.757,349.326 85.518 C 349.550 85.294,350.094 85.249,352.559 85.249 C 356.248 85.249,356.089 85.358,356.089 82.824 C 356.089 80.241,356.286 80.379,352.458 80.274 C 348.920 80.178,348.946 80.191,349.402 78.809 C 349.906 77.283,350.908 76.787,353.906 76.583 C 356.087 76.434,356.089 76.432,356.089 74.206 C 356.089 71.825,355.899 71.659,353.345 71.811 M154.031 72.569 C 153.086 72.996,152.236 73.788,151.743 74.700 L 151.372 75.386 151.325 90.570 C 151.284 103.583,151.313 105.803,151.525 106.093 C 151.910 106.620,157.186 106.710,157.815 106.201 L 158.233 105.862 158.319 98.943 L 158.405 92.024 165.558 91.938 C 171.106 91.872,172.760 91.802,172.933 91.630 C 173.258 91.305,173.247 86.955,172.921 86.562 C 172.709 86.306,171.989 86.278,165.708 86.278 C 160.510 86.278,158.678 86.225,158.525 86.072 C 158.158 85.705,158.242 78.690,158.619 78.236 C 158.917 77.877,158.991 77.874,168.582 77.831 C 177.922 77.789,178.252 77.776,178.487 77.454 C 178.855 76.951,178.834 72.855,178.461 72.482 C 177.986 72.007,155.094 72.089,154.031 72.569 M181.338 72.419 C 180.952 72.804,181.062 76.794,181.464 77.009 C 182.097 77.348,186.695 77.235,187.023 76.873 C 187.355 76.506,187.438 73.122,187.129 72.544 C 186.913 72.140,181.729 72.027,181.338 72.419 M355.369 72.590 C 355.495 72.716,355.575 73.333,355.575 74.185 C 355.575 75.849,355.471 75.986,354.211 75.988 C 350.824 75.992,349.188 76.945,348.708 79.191 C 348.373 80.760,348.358 80.752,352.064 80.818 C 355.765 80.884,355.568 80.777,355.572 82.730 C 355.576 84.835,355.749 84.734,352.148 84.734 C 349.168 84.734,349.068 84.746,348.809 85.115 C 348.575 85.450,348.542 86.714,348.542 95.393 C 348.542 100.836,348.495 105.411,348.438 105.561 C 348.304 105.909,343.944 105.968,343.602 105.626 C 343.447 105.471,343.396 102.953,343.396 95.347 C 343.396 83.707,343.571 84.734,341.595 84.734 C 339.932 84.734,339.794 84.594,339.794 82.910 C 339.794 81.067,339.881 80.961,341.392 80.961 C 342.887 80.961,343.338 80.710,343.485 79.798 C 344.228 75.192,346.059 73.396,350.772 72.649 C 352.664 72.349,355.096 72.318,355.369 72.590 M178.039 73.059 C 178.291 73.532,178.268 76.723,178.010 76.981 C 177.855 77.136,175.553 77.187,168.705 77.188 C 159.013 77.189,158.526 77.226,158.017 78.002 C 157.538 78.734,157.568 86.195,158.052 86.549 C 158.326 86.750,159.583 86.792,165.199 86.792 C 168.947 86.792,172.135 86.839,172.284 86.897 C 172.783 87.088,172.677 91.180,172.170 91.316 C 171.958 91.372,168.725 91.420,164.987 91.421 C 158.877 91.423,158.166 91.452,157.954 91.707 C 157.767 91.933,157.701 93.388,157.633 98.868 L 157.547 105.746 154.870 105.793 C 152.733 105.831,152.153 105.792,151.992 105.599 C 151.842 105.417,151.804 101.660,151.839 90.543 L 151.887 75.729 152.290 74.910 C 152.734 74.008,153.514 73.325,154.502 72.972 C 155.694 72.547,177.808 72.629,178.039 73.059 M186.587 72.933 C 186.843 73.190,186.866 75.872,186.615 76.341 C 186.399 76.743,182.239 76.853,181.852 76.467 C 181.637 76.251,181.557 73.504,181.751 72.999 C 181.884 72.650,186.245 72.591,186.587 72.933 M288.055 80.348 C 281.782 81.529,279.367 85.123,279.342 93.310 C 279.313 103.428,282.585 106.599,293.053 106.599 C 302.729 106.599,306.316 103.665,306.827 95.330 C 307.350 86.795,304.947 82.154,299.194 80.586 C 297.480 80.119,290.106 79.961,288.055 80.348 M318.496 80.362 C 311.919 81.599,308.918 86.882,309.771 95.723 C 310.563 103.938,313.984 106.613,323.671 106.592 C 334.175 106.570,337.641 102.984,337.341 92.453 C 337.143 85.530,334.864 81.979,329.726 80.589 C 327.958 80.110,320.623 79.962,318.496 80.362 M181.647 80.490 L 181.218 80.713 181.174 93.354 L 181.130 105.994 181.550 106.269 C 182.218 106.707,186.721 106.568,187.064 106.099 C 187.427 105.602,187.427 81.191,187.064 80.693 C 186.753 80.267,182.388 80.103,181.647 80.490 M199.624 80.453 C 195.234 80.965,192.486 83.264,191.672 87.108 C 191.481 88.006,191.429 90.144,191.427 97.123 L 191.424 105.996 191.842 106.270 C 192.510 106.707,197.013 106.568,197.356 106.099 C 197.556 105.824,197.599 104.479,197.602 98.381 C 197.608 86.316,198.145 85.249,204.213 85.249 C 206.064 85.249,206.089 85.216,206.089 82.806 C 206.089 80.264,206.092 80.266,203.026 80.297 C 201.786 80.309,200.256 80.380,199.624 80.453 M216.216 80.455 C 209.781 81.455,207.539 84.870,207.550 93.654 C 207.560 101.337,209.310 104.755,213.938 106.131 C 215.335 106.547,230.873 106.671,231.483 106.271 C 232.049 105.901,232.146 102.029,231.598 101.735 C 231.423 101.641,228.283 101.547,224.265 101.515 L 217.238 101.458 216.295 100.991 C 214.863 100.282,214.081 98.727,214.069 96.561 C 214.063 95.505,213.793 95.540,221.927 95.540 C 231.212 95.540,231.729 95.401,232.519 92.686 C 233.780 88.346,231.710 83.131,228.035 81.392 C 226.055 80.456,219.541 79.939,216.216 80.455 M239.708 80.443 C 238.189 80.766,237.283 81.397,236.656 82.569 L 236.278 83.276 236.231 98.655 C 236.190 112.531,236.212 114.060,236.458 114.307 C 236.808 114.656,241.820 114.715,242.161 114.374 C 242.307 114.228,242.367 113.187,242.367 110.783 C 242.367 108.921,242.439 107.210,242.526 106.979 L 242.685 106.561 247.372 106.474 C 256.690 106.302,259.551 104.131,260.382 96.602 C 261.386 87.500,259.063 82.309,253.259 80.679 C 252.101 80.354,241.033 80.161,239.708 80.443 M272.052 80.461 C 268.617 80.905,266.100 82.519,264.906 85.043 C 264.036 86.881,263.986 87.545,263.982 97.123 L 263.979 105.996 264.398 106.270 C 264.951 106.632,269.420 106.572,269.871 106.197 C 270.126 105.985,270.155 105.226,270.158 98.564 C 270.163 86.381,270.534 85.583,276.325 85.269 C 278.711 85.140,278.724 85.126,278.728 82.711 C 278.732 80.344,278.630 80.268,275.522 80.296 C 274.221 80.308,272.659 80.382,272.052 80.461 M298.885 81.114 C 304.237 82.529,306.221 85.796,306.241 93.225 C 306.266 102.866,302.898 106.173,293.053 106.173 C 283.047 106.173,279.428 102.411,279.811 92.408 C 280.092 85.058,282.754 81.637,288.851 80.794 C 290.971 80.500,297.332 80.704,298.885 81.114 M327.530 80.807 C 334.019 81.599,336.878 85.423,336.878 93.310 C 336.878 102.587,333.199 106.170,323.666 106.174 C 313.750 106.178,310.390 102.968,310.381 93.482 C 310.373 85.063,313.081 81.435,319.897 80.734 C 321.317 80.588,326.112 80.634,327.530 80.807 M205.306 81.039 C 205.416 81.107,205.489 81.836,205.489 82.854 C 205.489 84.845,205.710 84.677,202.951 84.785 C 200.038 84.899,198.255 86.073,197.480 88.387 C 197.215 89.175,197.175 90.203,197.132 97.170 C 197.105 101.509,197.043 105.234,196.995 105.446 C 196.854 106.058,192.171 106.050,192.017 105.437 C 191.740 104.332,192.037 87.570,192.351 86.621 C 193.556 82.975,195.978 81.294,200.502 80.963 C 202.588 80.810,204.997 80.848,205.306 81.039 M225.643 81.202 C 230.074 82.195,232.120 84.978,232.150 90.051 C 232.178 94.881,231.877 95.023,221.602 95.025 C 215.617 95.026,214.068 95.072,213.815 95.256 C 213.298 95.634,213.518 98.307,214.172 99.606 C 215.331 101.907,215.967 102.058,224.458 102.058 C 232.089 102.058,231.424 101.857,231.353 104.142 L 231.304 105.746 223.273 105.791 C 214.579 105.839,214.156 105.804,212.341 104.884 C 209.020 103.201,207.665 98.581,208.223 90.843 C 208.687 84.409,210.732 81.947,216.375 81.027 C 218.234 80.723,223.995 80.832,225.643 81.202 M252.961 81.207 C 257.978 82.447,259.949 85.825,259.923 93.139 C 259.903 98.767,259.127 101.471,256.954 103.482 C 254.833 105.445,253.871 105.682,247.456 105.813 C 241.180 105.941,241.852 105.425,241.852 110.119 C 241.852 112.639,241.793 113.713,241.647 113.859 C 241.260 114.246,237.100 114.136,236.884 113.733 C 236.630 113.258,236.640 84.889,236.895 83.700 C 237.252 82.036,238.380 81.169,240.474 80.949 C 242.701 80.715,251.724 80.901,252.961 81.207 M277.605 80.956 C 278.034 81.119,278.045 81.163,278.045 82.736 C 278.045 84.724,278.102 84.674,275.701 84.769 C 273.319 84.863,271.919 85.441,270.925 86.744 C 269.759 88.271,269.745 88.383,269.688 97.170 C 269.660 101.509,269.598 105.234,269.550 105.446 C 269.439 105.933,265.067 106.058,264.674 105.585 C 264.303 105.138,264.518 87.816,264.909 86.621 C 265.849 83.750,267.774 81.970,270.669 81.294 C 272.413 80.887,276.853 80.671,277.605 80.956 M186.688 81.232 C 186.931 81.865,186.802 105.439,186.554 105.644 C 186.394 105.778,185.568 105.826,184.024 105.794 L 181.732 105.746 181.688 93.568 C 181.664 86.870,181.680 81.293,181.726 81.175 C 181.861 80.820,186.551 80.874,186.688 81.232 M110.939 83.491 C 110.795 83.656,108.650 87.303,106.173 91.595 C 103.696 95.888,100.416 101.561,98.883 104.202 C 87.733 123.415,87.710 123.456,87.988 123.734 C 88.392 124.139,111.074 123.995,111.476 123.585 C 111.777 123.277,121.981 105.748,122.849 104.046 C 123.730 102.320,122.655 96.760,120.674 92.796 C 118.236 87.917,112.155 82.103,110.939 83.491 M112.617 84.070 C 118.424 87.746,122.689 95.299,122.870 102.230 C 122.903 103.521,123.526 102.317,116.752 114.065 C 111.657 122.902,111.361 123.373,110.806 123.522 C 110.260 123.668,89.762 123.707,89.044 123.563 C 88.666 123.488,88.508 123.359,88.508 123.126 C 88.508 122.862,95.447 110.623,99.141 104.374 C 99.587 103.619,101.326 100.609,103.006 97.684 C 108.314 88.445,110.829 84.143,111.106 83.834 C 111.471 83.424,111.637 83.450,112.617 84.070 M291.424 84.500 C 286.758 85.182,285.330 87.005,285.129 92.539 C 284.893 99.041,286.587 101.645,291.452 102.258 C 296.094 102.843,299.365 101.269,300.596 97.856 C 300.999 96.738,301.174 91.422,300.861 89.822 C 300.078 85.831,296.423 83.770,291.424 84.500 M321.396 84.563 C 317.092 85.114,315.695 87.279,315.695 93.396 C 315.695 99.789,317.351 101.938,322.579 102.328 C 328.903 102.799,331.562 100.077,331.557 93.139 C 331.552 86.199,328.530 83.649,321.396 84.563 M217.878 84.753 C 215.198 85.200,213.451 87.261,213.584 89.818 C 213.661 91.281,213.513 91.247,219.811 91.249 C 226.499 91.251,226.930 91.133,226.930 89.305 C 226.930 85.910,222.949 83.909,217.878 84.753 M242.685 84.986 C 241.889 85.433,241.852 85.824,241.852 93.812 C 241.852 103.123,241.326 102.059,245.936 102.056 C 252.596 102.052,254.086 100.900,254.578 95.369 C 255.078 89.743,254.111 86.586,251.495 85.301 C 250.290 84.709,243.606 84.471,242.685 84.986 M326.658 85.351 C 329.848 86.133,330.960 88.193,330.954 93.310 C 330.946 99.438,329.314 101.465,324.221 101.672 C 317.530 101.943,314.930 98.094,316.367 90.043 C 317.116 85.843,321.156 84.001,326.658 85.351 M296.942 85.570 C 299.495 86.567,300.512 88.772,300.512 93.310 C 300.512 99.621,298.716 101.622,293.053 101.622 C 287.655 101.622,285.939 99.973,285.653 94.511 C 285.360 88.912,286.583 86.262,289.884 85.343 C 291.371 84.929,295.656 85.067,296.942 85.570 M223.181 85.527 C 225.004 86.038,226.232 87.522,226.240 89.224 C 226.246 90.628,226.493 90.577,219.925 90.525 L 214.151 90.480 214.095 89.894 C 213.755 86.322,218.274 84.150,223.181 85.527 M250.835 85.601 C 253.289 86.459,253.931 88.019,253.939 93.139 C 253.947 98.543,253.522 99.728,251.151 100.895 L 250.008 101.458 246.488 101.508 C 244.330 101.538,242.868 101.491,242.710 101.386 C 242.490 101.238,242.446 100.198,242.403 94.132 C 242.350 86.495,242.402 85.805,243.061 85.459 C 243.639 85.155,249.885 85.269,250.835 85.601 " stroke="none" fill="#737b84" fill-rule="evenodd"></path></g></svg>